<svg xmlns="http://www.w3.org/2000/svg" width="316" height="266" fill="none" viewBox="0 0 316 266">
  <ellipse cx="158" cy="260" fill="#3D5A80" rx="126" ry="6"/>
  <path fill="#fff" d="M154.837 242.005c.159 3.56 2.429 6.682 5.651 8.182 3.668 1.716 9.625 3.884 15.696 3.529 4.59-.268 9.25-1.984 13.045-6.434 4.03-4.724 7.312-9.759 9.893-14.354 5.06-9.002 7.431-16.32 7.431-16.32l-28.13-9.459-3.434 5.932-3.878 6.694-7.522 12.987s-9.096 1.684-8.752 9.243Z"/>
  <path fill="#fff" d="M154.837 242.005c.159 3.56 2.429 6.682 5.651 8.182 6.446 3.013 19.936 7.425 28.741-2.905 4.03-4.724 7.312-9.759 9.893-14.354a18.209 18.209 0 0 0-1.419-.166c-22.034-1.697-26.592-12.987-26.592-12.987l-7.522 12.987s-9.096 1.684-8.752 9.243Zm-55.098 12.702c2.249 1.501 4.907 2.269 7.616 2.269h21.481s10.482.897 10.8-9.262c.013-.305.013-.623.006-.947-.317-11.163-12.079-10-12.079-10-1.969-2.219-2.795-5.798-3.07-9.409-.451-5.911.578-11.913.484-12.18 0 0 7.462-6.993 8.944-9.747 1.481-2.758-3.178-3.603-7.418-5.936-4.235-2.327-24.158-4.024-27.12-3.918-2.97.103-3.606 2.646-7.826 30.65-.02.114-.032.229-.05.343a58.803 58.803 0 0 0-.51 4.831c-.865 13.999 4.426 20.42 8.742 23.306Z"/>
  <path fill="#D6DCE4" d="M182.857 229.471a230.355 230.355 0 0 1-6.516-14.286l-3.906 6.744c1.544 2.042 4.654 5.144 10.422 7.542Z"/>
  <path fill="#D6DCE4" d="M171.937 251.36c-18.943-11.014-.03-14.593-.03-14.593 4.417-3.926 9.168-5.004 12.105-5.028-.395-.761-.779-1.518-1.155-2.267-5.769-2.399-8.879-5.501-10.423-7.544l-6.917 11.949a2.241 2.241 0 0 1-1.514 1.072c-.294.055-7.194 1.448-6.942 6.955v.002c.116 2.625 1.831 5.083 4.37 6.265 2.751 1.287 6.503 2.697 10.506 3.189Z"/>
  <path fill="#fff" d="M99.74 254.707c2.249 1.501 4.906 2.27 7.615 2.27h21.481s11.124.953 10.806-10.21c-.317-11.163-12.079-10-12.079-10-1.969-2.219-2.795-5.798-3.07-9.409-.515-.076-.787-.101-.787-.101v-.973s-5.887-2.842-14.469 1.081c-8.532 3.897-12.467 4.755-18.24 4.036-.865 13.999 4.426 20.42 8.742 23.306Z"/>
  <path fill="#293241" d="M128.487 238.959c1.383 0 4.507.226 6.629 2.11 1.476 1.308 2.23 3.193 2.304 5.761.072 2.62-.582 4.609-1.949 5.911-2.413 2.299-6.416 2.022-6.456 2.019a2.087 2.087 0 0 0-.179-.008h-21.481c-2.315 0-4.522-.656-6.382-1.896-3.974-2.659-8.545-8.515-7.756-21.317.1-1.575.28-3.252.54-4.983 2.214-14.685 4.128-27.384 5.513-28.74a1.94 1.94 0 0 1 .188-.015c3.181-.126 22.447 1.705 25.973 3.644 1.204.662 2.424 1.205 3.5 1.686 1.007.448 2.327 1.036 2.907 1.462-1.187 1.915-5.705 6.451-8.382 8.96a2.23 2.23 0 0 0-.702 1.73c-.013.177-.048.467-.089.852-.242 2.195-.743 6.762-.39 11.392.365 4.813 1.585 8.419 3.625 10.718.473.532 1.169.81 1.883.736.01-.001.27-.022.704-.022Zm.966 20.262c1.755 0 5.987-.328 9.057-3.227 2.339-2.211 3.468-5.337 3.357-9.29-.109-3.826-1.396-6.852-3.828-8.992-3.134-2.757-7.306-3.182-9.393-3.203-1.028-1.62-1.693-4.121-1.935-7.319-.32-4.219.151-8.509.376-10.57l.046-.42c1.955-1.863 7.358-7.132 8.747-9.714.735-1.367.595-2.514.347-3.236-.702-2.053-2.917-3.041-5.484-4.185-1.046-.465-2.126-.947-3.169-1.52-4.878-2.681-25.36-4.306-28.273-4.19-3.588.123-4.657 3.161-5.518 6.534-1.06 4.161-2.222 11.385-4.427 26.006a63.277 63.277 0 0 0-.58 5.366c-.92 14.917 4.782 21.989 9.724 25.296l.004.001c2.593 1.73 5.653 2.644 8.851 2.644h21.404c.135.007.372.019.694.019Z"/>
  <path fill="#fff" d="M3.3 48.39c1.302 4.016 4.037 7.372 7.54 9.737 5.064 3.422 8.442 9.112 9.593 17.758.71 5.307.583 11.729-.497 19.419-.605 4.286-.87 8.622-.553 12.932 1.748 23.459 17.482 46.154 48.633 43.369l13.008-23.809c-7.357 1.083-14.102.854-19.83-1.581-3.79-1.601-7.139-4.177-9.917-7.971-3.967-5.419-5.714-12.143-5.214-18.833.784-10.354 1.344-20.552.505-29.865-1.508-16.664-7.515-30.49-24.864-37.291a20.17 20.17 0 0 0-3.808-1.076 16.918 16.918 0 0 0-4.903-.182C4.969 31.897-.11 37.9 3.3 48.39Z"/>
  <path fill="#293241" d="M203.691 217.994c-1.045 2.748-3.193 7.945-6.51 13.842-2.939 5.238-6.184 9.948-9.644 14.002-7.711 9.046-19.666 5.345-26.105 2.333-2.541-1.181-4.255-3.64-4.372-6.264v-.003c-.252-5.507 6.65-6.899 6.944-6.955a2.243 2.243 0 0 0 1.512-1.071l13.921-24.041 24.254 8.157Zm-28.808 37.956c5.517 0 11.362-1.734 16.041-7.224 3.645-4.273 7.057-9.222 10.138-14.708 5.109-9.092 7.508-16.416 7.608-16.725a2.226 2.226 0 0 0-1.407-2.794l-28.132-9.459a2.226 2.226 0 0 0-2.634.993l-14.349 24.779c-3.924 1.063-9.846 4.423-9.534 11.295.195 4.328 2.852 8.197 6.937 10.097 3.243 1.517 9.078 3.746 15.332 3.746Z"/>
  <path fill="#fff" d="M54.665 243.785c11.444 15.467 20.768 16.689 26.969 12.556 2.516-1.679 3.615-3.884 3.788-6.236h.007c.254-3.44-1.47-7.21-3.637-10.134 0 0 1.33-7.139 7.82-12.346a22.428 22.428 0 0 1 5.847-3.388c5.418-2.156 9.455-4.272 12.212-5.918a6.45 6.45 0 0 1 .401-.242c.051-.032.109-.064.16-.096.694-.426 1.29-.807 1.805-1.151.058-.031.114-.076.172-.114 1.418-.959 2.098-1.538 2.098-1.538s33.057 17.59 64.634-4.451c0 0 4.139 10.738 9.911 21.628 4.259 8.042 9.416 16.167 14.456 20.121 11.87 9.319 30.306 5.721 39.841 4.024 3.961-.705 5.474-3.865 5.048-7.33-.597-4.869-5.015-10.343-11.831-10.47 0 0-2.709-5.538-5.798-14.228h-.006c-2.771-7.782-5.843-18.093-7.546-29.212 0 0 .248-.502.687-1.411 3.306-6.738 17.565-35.74 23.312-45.262.566-.936.527-2.098-.013-3.442-5.658-14.144-67.025-48.27-67.025-48.27s.135 6.289-4.291 11.781c-3.733 4.633-10.699 8.71-23.712 7.984-28.449-1.588-56.312-8.054-73.477 16.738a58.259 58.259 0 0 0-5.473 9.728c-9.346 21.087-2.755 40.603-10.846 56.604-1.336 2.632-2.633 5.1-3.841 7.439-7.279 14.011-11.481 23.381-1.672 36.636Z"/>
  <path fill="#fff" d="M76.29 137.785c10.566-15.228 25.176-18.636 41.481-18.636 10.186 0 21.034 1.331 31.965 1.941 1.021.056 2.008.084 2.954.084 9.611 0 15.537-2.828 19.189-6.349.126-.57.254-1.111.382-1.617-4.717 3.814-11.196 5.743-19.315 5.743-1.006 0-2.039-.03-3.096-.09-3.992-.222-8.004-.545-11.882-.854-7.051-.564-13.825-1.106-20.234-1.106-13.59 0-25.53 2.438-34.961 12.27a2.45 2.45 0 0 1-.29.305 44.466 44.466 0 0 0-4.16 5.17 60.138 60.138 0 0 0-2.034 3.139Zm110.563 94.57c4.258 8.042 9.415 16.167 14.455 20.121 11.87 9.32 30.306 5.721 39.842 4.024 9.535-1.697 4.869-17.59-6.783-17.8 0 0-2.709-5.537-5.798-14.228h-.006s-10.407-.501-17.19 5.645c-6.778 6.148-19.37 6.275-24.52 2.238Zm-132.189 11.43c11.444 15.467 20.769 16.689 26.97 12.556 6.197-4.132 3.813-11.443.157-16.37 0 0 1.33-7.139 7.821-12.346 0 0-9.301 2.174-17.248-7.889-6.605-8.366-11.013-11.978-16.028-12.587-7.278 14.011-11.48 23.381-1.672 36.636Z"/>
  <path fill="#293241" d="M179.816 100.458c25.194 14.222 60.903 37.043 63.295 46.022.117.439.117.761-.002.956-6.493 10.769-23.378 45.378-24.094 46.847a2.233 2.233 0 0 0-.199 1.312c3.612 23.586 13.148 43.257 13.552 44.082a2.223 2.223 0 0 0 1.958 1.247c6.145.112 9.417 5.336 9.694 8.832.14 1.787-.311 4.029-3.262 4.553l-.772.138c-9.273 1.656-26.533 4.74-37.304-3.723-11.249-8.838-23.544-40.479-23.666-40.797a2.226 2.226 0 0 0-3.351-1.023c-12.575 8.777-26.848 12.186-42.425 10.129-11.713-1.545-19.812-5.779-19.892-5.821a2.23 2.23 0 0 0-2.483.269c-.047.04-5.179 4.299-16.228 8.688-12.598 5.005-14.94 16.892-15.032 17.395-.115.609.03 1.236.399 1.733 2.403 3.239 3.574 6.7 3.128 9.257-.279 1.608-1.173 2.895-2.734 3.935-6.498 4.332-14.998.062-23.942-12.027-9.395-12.699-5.067-21.007 2.788-36.087a587.27 587.27 0 0 0 2.92-5.662c4.127-8.165 4.618-17.013 5.136-26.381.704-12.698 1.43-25.829 11.021-39.684 14.046-20.287 35.18-18.599 59.648-16.64 3.877.31 7.89.632 11.88.855 10.462.586 18.477-1.737 23.819-6.896 3.984-3.848 5.54-8.406 6.148-11.509Zm42.726 160.384c6.95.001 13.538-1.177 18.226-2.014l.768-.138c4.585-.815 7.301-4.46 6.92-9.285-.453-5.739-5.349-11.986-12.63-12.835-2.051-4.489-9.416-21.515-12.504-40.964 2.361-4.828 17.678-36.053 23.598-45.87.526-.876 1.039-2.345.492-4.401-.617-2.311-2.494-9.354-35.951-30.927-16.241-10.472-32.245-19.39-32.405-19.479a2.233 2.233 0 0 0-2.23.04 2.223 2.223 0 0 0-1.077 1.946c.003.126.005 6.892-5.219 11.896-4.417 4.231-11.293 6.121-20.432 5.607-3.938-.219-7.921-.538-11.777-.848-24.764-1.978-48.155-3.849-63.659 18.545-10.307 14.886-11.103 29.277-11.804 41.972-.493 8.888-.958 17.284-4.668 24.617-.99 1.96-1.962 3.826-2.894 5.615-7.817 15.01-13.466 25.854-2.417 40.789 14.257 19.276 24.91 16.471 29.988 13.084 2.556-1.704 4.163-4.081 4.65-6.874.614-3.536-.592-7.791-3.322-11.805.723-2.517 3.5-9.798 12.085-13.209 8.835-3.508 14.1-6.939 16.287-8.524 2.849 1.322 10.134 4.326 19.92 5.642 11.004 1.479 27.257.977 43.405-9.32 3.27 7.987 13.704 32 24.041 40.121 6.53 5.132 14.798 6.619 22.609 6.619Z"/>
  <path fill="#293241" d="M113.715 216.901c11.046-7.888 13.411-22.961 11.748-35.594-.212-1.542-.543-3.822-.865-5.331-.025.897-.063 1.795-.069 2.687-.045 1.34-.211 4.004-.335 5.338-.675 7.733-2.527 15.438-6.86 21.921-1.841 2.777-4.037 5.231-6.454 7.552-1.943 1.924.586 4.978 2.835 3.427Zm65.278-7.024c-3.455-6.818-6.476-14.047-7.882-21.612-.058 3.919.39 7.852 1.058 11.722.701 3.93 1.565 7.732 2.714 11.59 1.086 3.065 5.509 1.242 4.11-1.7Zm44.215-15.011c-1.998-7.484-3.994-15.043-4.893-22.758-.179 1.947-.226 3.91-.243 5.871-.018 5.908.299 11.779.756 17.672.414 3.214 5.105 2.38 4.38-.785Zm-139.82 43.553c-5.404-4.244-11.53-7.754-18.232-9.361 1.512.743 2.962 1.557 4.333 2.494 4.026 2.76 7.658 6.186 10.708 9.97 2.135 2.511 5.644-.895 3.19-3.103Zm-21.212 15.626c3.433-1.256 6.15-4.4 6.596-8.04.007-.286.071-1.066.076-1.344-.01-.29-.076-1.016-.094-1.312-.078-.573-.21-1.134-.312-1.683-.104.815-.211 1.678-.454 2.458l-.103.391-.151.375c-.938 2.706-3.606 4.751-6.442 4.794l.884 4.361Zm12.276 6.226c4.387-3.034 6.323-8.704 3.737-13.505.682 4.057-1.263 7.84-5.125 9.329-.198.076-.466.177-.565.179l1.953 3.997Zm159.707-23.786c-5.537 1.313-11.013 2.861-16.321 4.863 5.565-.539 11.169-.606 16.738-.432 3.365-.051 2.903-5.01-.417-4.431Z"/>
  <path fill="#FF9331" d="M3.3 48.39c1.302 4.016 4.037 7.373 7.54 9.737 5.064 3.422 8.442 9.112 9.593 17.758 7.932-15.544 26.135-6.339 26.135-6.339-1.508-16.664-7.515-30.49-24.864-37.291-2.766-1.081-5.76-1.589-8.711-1.258C4.969 31.898-.11 37.9 3.3 48.39Z"/>
  <path fill="#293241" d="M238.99 258.071c.562-3.612.634-8.015-2.063-10.789 1.178 3.208-.357 6.494-2.064 9.125l4.127 1.664Zm-13.465 1.359c.691-4.078.609-8.808-2.072-12.148 1.146 3.59-.211 7.46-2.073 10.529l4.145 1.619ZM63 154.058c1.707 0 3.448-.078 5.215-.236a2.225 2.225 0 0 0 2.018-2.415 2.216 2.216 0 0 0-2.415-2.017c-12.389 1.108-22.799-1.836-30.949-8.749-8.71-7.393-14.276-19.265-15.265-32.57-.285-3.816-.107-7.891.535-12.454 1.08-7.693 1.248-14.433.498-20.027-1.182-8.88-4.732-15.375-10.553-19.307-3.255-2.195-5.56-5.163-6.667-8.58-1.402-4.312-1.277-7.933.36-10.473 1.827-2.837 5.07-3.754 7.466-4.022 2.433-.274 5.077.114 7.65 1.12 14.522 5.693 21.758 16.617 23.458 35.417.778 8.635.36 18.038-.504 29.5-.556 7.38 1.446 14.592 5.636 20.312 6.732 9.191 17.153 12.608 31.865 10.441a2.222 2.222 0 0 0 1.877-2.524 2.227 2.227 0 0 0-2.527-1.879c-13.104 1.929-21.88-.825-27.626-8.667-3.563-4.866-5.265-11.026-4.787-17.349.882-11.681 1.305-21.292.498-30.233-1.845-20.416-10.193-32.86-26.268-39.164-3.245-1.266-6.62-1.749-9.768-1.396-4.743.532-8.547 2.675-10.71 6.032-1.664 2.585-3.162 7.153-.854 14.258 1.417 4.37 4.325 8.14 8.41 10.896 4.788 3.232 7.612 8.533 8.633 16.205.7 5.197.53 11.528-.493 18.819-.69 4.881-.875 9.266-.57 13.404 1.081 14.488 7.216 27.474 16.83 35.634 7.781 6.602 17.73 10.024 29.006 10.024Zm63.984 80.558c-3.912 1.836-7.965 3.858-11.708 5.991 2.145-.384 4.288-.697 6.438-.975 1.881-.234 4.576-.556 6.43-.72 3.482-.541 2.122-5.581-1.16-4.296Zm7.669 22.561c.079-4.015-.063-8.295-2.163-11.803.606 3.682-.738 7.44-2.163 10.757l4.326 1.046Zm-9.459.018c.045-3.566-.292-7.375-2.158-10.429.233 1.699-.043 3.327-.454 4.896-.411 1.497-1.005 3.113-1.706 4.452l4.318 1.081Z"/>
  <path fill="#D6DCE4" d="M221.645 188.922c4.553-9.244 13.9-28.046 19.483-38.049-1.584.045-3.138.067-4.664.067-24.126 0-40.7-5.599-50.456-16.994-5.553-6.484-8.85-14.696-9.911-24.785-.185.259-.379.515-.584.772a18.596 18.596 0 0 1-3.632 4.894c-2.793 12.793-3.596 41.028 43.682 41.028h.467a5.781 5.781 0 0 1 5.791 5.637c.094 3.741-.361 9.388-2.494 17.184.646 3.439 1.453 6.852 2.318 10.246Z"/>
  <path fill="#D6DCE4" d="M171.88 114.825a18.67 18.67 0 0 0 3.634-4.893 20.703 20.703 0 0 1-3.253 3.278 48.149 48.149 0 0 0-.381 1.615Z"/>
  <path fill="#293241" d="M222.502 192.219c4.049-8.239 15.334-31.073 21.23-41.438-.877.038-1.745.067-2.604.092-5.584 10.004-14.931 28.804-19.482 38.048.28 1.103.568 2.2.856 3.298Zm-50.239-79.009a21.017 21.017 0 0 0 3.835-4.05c-.018-.167-.034-.336-.051-.505h-2.361s-.709 1.743-1.423 4.555Z"/>
  <path fill="#293241" d="m221.704 193.849.8-1.63a397.905 397.905 0 0 1-.858-3.296c-.865-3.393-1.673-6.808-2.319-10.248a99.199 99.199 0 0 1-1.012 3.446l3.389 11.728Z"/>
  <path fill="#fff" d="M248.54 22.568S259.103 7.387 273.491 2.44a3.927 3.927 0 0 1 4.204 1.102c3.679 4.098 11.552 15.568 11.393 38.586l-40.548-19.56Z"/>
  <path fill="#fff" d="M286.508 33.445c-1.532-16.653-7.62-25.245-10.467-28.417a1.727 1.727 0 0 0-1.281-.575c-.183 0-.368.029-.546.09-.659.227-1.31.478-1.952.748a3.944 3.944 0 0 1 3.528 1.273c2.991 3.33 8.757 11.545 10.718 26.88Z"/>
  <path fill="#EE6C4D" d="M282.353 35.188s-1.292-17.781-7.459-24.237c0 0-8.358 5.844-11.291 14.166l18.75 10.071Z"/>
  <path fill="#CC5F45" d="M279.89 30.491c-.802-5.371-2.449-12.746-5.301-16.886a38.814 38.814 0 0 0-3.86 3.688c.519-.405.828-.622.828-.622 2.586 2.708 4.314 7.403 5.448 11.946a52.18 52.18 0 0 1 2.885 1.874Z"/>
  <path fill="#fff" d="M178.555 91.408c-5.15 47.113 24.413 60.018 70.274 56.86 27.628-1.792 46.28-10.541 56.255-22.035 9.218-10.603 11.049-23.543 5.728-35.499-4.889-9.554-9.148-20.135-12.664-31.944-9.103-26.111-32.141-38.045-58.709-36.105-8.608.616-17.584 2.696-26.579 6.225-49.072-33.891-49.269-6.994-31.685 47.252-1.233 5.442-2.104 10.516-2.62 15.246Z"/>
  <path fill="#FF9331" d="M181.175 76.163c-1.233 5.441-2.104 10.515-2.62 15.245 2.626.395 5.296.54 7.953.56 16.701.107 34.52-5.61 43.72-18.666 2.135-3.025 3.75-6.357 5.104-9.752 5.162-12.97 6.535-27.222 4.107-40.865-8.608.616-17.584 2.696-26.579 6.225-49.072-33.891-49.269-6.994-31.685 47.253Z"/>
  <path fill="#fff" d="M310.215 95.48a33.057 33.057 0 0 0-1.412-3.788 180.91 180.91 0 0 1-7.736-17.4c2.718 7.56 5.766 14.572 9.11 21.103l.038.085Zm-14.04-35.534a51.445 51.445 0 0 1-.142-.474c-4.792-13.707-13.867-23.958-26.248-29.649-6.393-2.939-13.466-4.619-20.977-5.047a2.227 2.227 0 0 1-.763-.04 69.562 69.562 0 0 0-3.119-.069c-1.692 0-3.406.063-5.134.183.119.8.224 1.601.317 2.404a74.228 74.228 0 0 1 4.168-.115c4.006 0 7.911.328 11.679.988 1.95 3.024 4.59 4.36 7.774 4.36 1.435 0 2.979-.271 4.623-.78 12.222 5.107 22.088 14.505 27.822 28.24Z"/>
  <path fill="#FFD4AD" d="M212.224 33.57c9.45-3.706 18.881-5.814 27.885-6.313a74.286 74.286 0 0 0-.317-2.405c-8.412.597-17.222 2.641-26.122 6.13a2.23 2.23 0 0 1-2.077-.239C195.245 19.45 185.998 16.15 180.77 16.15c-2.07 0-3.509.518-4.51 1.262-.98.728-1.725 1.789-2.269 3.12 1.559-1.287 3.592-1.956 6.145-1.956 6.756 0 17.162 4.683 32.088 14.993Z"/>
  <path fill="#293241" d="M308.804 91.694c4.159 9.388 3.553 19.347-1.705 28.047-9.005 14.895-30.295 24.485-58.414 26.306-29.52 2.034-48.915-2.87-59.296-14.995-9.649-11.267-11.68-29.568-6.042-54.393a2.22 2.22 0 0 0-.054-1.18c-4.088-12.612-16.532-50.993-7.034-58.067 3.524-2.62 12.512-2.434 35.335 13.329a2.22 2.22 0 0 0 2.076.241c20.41-7.998 40.338-8.41 56.115-1.158 12.381 5.69 21.456 15.942 26.249 29.65 3.413 11.478 7.71 22.318 12.77 32.22Zm-72.34 59.247c3.969 0 8.137-.152 12.518-.453 29.582-1.918 52.157-12.285 61.925-28.446 6.044-9.998 6.732-21.438 1.938-32.213-.016-.036-.034-.072-.052-.108-4.955-9.687-9.164-20.308-12.509-31.565a2.13 2.13 0 0 0-.032-.099c-5.196-14.901-15.088-26.062-28.609-32.275-16.596-7.632-37.328-7.398-58.491.63-20.066-13.711-32.647-17.705-39.548-12.568-8.409 6.26-6.838 24.944 5.268 62.427-5.881 26.328-3.546 45.2 7.136 57.675 9.757 11.395 26.33 16.995 50.456 16.995Z"/>
  <path fill="#EE6C4D" d="M202.261 36.856c-8.533 5.878-13.439 15.444-16.051 27.336-12.131-34.13-12.875-50.858 16.051-27.336Z"/>
  <path fill="#CC5F45" d="M195.52 40.19a33.952 33.952 0 0 1 3.624-3.387c-9.469-7.445-14.009-9.012-16.15-9.012-.727 0-1.179.181-1.453.374-.475.337-1.315 1.388-1.34 4.62a4.296 4.296 0 0 1 1.671-.315c2.963 0 7.408 2.424 13.648 7.72Z"/>
  <path fill="#293241" d="M199.145 36.806c-5.977 4.817-10.326 11.686-13.181 20.838-2.647-7.91-4.352-14.139-5.182-18.93-1.393-8.05.068-10.058.76-10.548 1.076-.76 4.912-1.34 17.603 8.64ZM186.209 66.1a1.904 1.904 0 0 0 1.864-1.496c2.729-12.414 7.723-20.975 15.272-26.176a1.907 1.907 0 0 0 .122-3.05c-12.456-10.13-19.896-13.312-24.125-10.327-5.149 3.635-3.679 15.162 5.071 39.782a1.907 1.907 0 0 0 1.796 1.267Zm102.878-21.747a2.227 2.227 0 0 0 2.225-2.212c.166-23.97-8.309-36.018-11.961-40.086a6.152 6.152 0 0 0-6.586-1.72c-14.902 5.124-25.604 20.316-26.052 20.963a2.226 2.226 0 0 0 3.653 2.542c.101-.147 10.339-14.652 23.848-19.297a1.71 1.71 0 0 1 1.826.484c3.306 3.683 10.977 14.667 10.822 37.085a2.226 2.226 0 0 0 2.209 2.24h.016Z"/>
  <path fill="#293241" d="M282.35 37.095c.046 0 .092-.003.14-.005a1.908 1.908 0 0 0 1.763-2.042c-.053-.755-1.415-18.543-7.98-25.417a1.907 1.907 0 0 0-2.472-.243c-.362.253-8.896 6.298-11.998 15.094a1.907 1.907 0 0 0 3.598 1.268c1.99-5.647 6.798-10.16 9.188-12.145 3.896 5.654 5.543 17.346 5.861 21.72a1.908 1.908 0 0 0 1.9 1.77Zm12.384 48.565c.626 0 1.188-.073 1.671-.177 4.706-1.017 8.244-6.278 8.603-12.792a2.224 2.224 0 0 0-2.099-2.343 2.212 2.212 0 0 0-2.344 2.099c-.242 4.376-2.434 8.11-5.1 8.687-2.63.567-5.676-2.04-8.347-7.163a2.227 2.227 0 0 0-3.002-.944 2.228 2.228 0 0 0-.944 3.002c4.151 7.959 8.578 9.631 11.562 9.631Zm-54.263 13.442c.947 0 1.895-.124 2.84-.38 5.869-1.585 9.969-7.872 9.969-15.287a2.225 2.225 0 0 0-4.451 0c0 5.408-2.746 9.929-6.678 10.991-3.844 1.039-7.893-1.525-11.109-7.037a2.224 2.224 0 1 0-3.843 2.24c3.555 6.1 8.364 9.473 13.272 9.473Z"/>
  <path fill="#FF5228" d="M273.424 115.171c5.691-1.136 9.54.257 11.204 4.647-5.318 2.709-9.312 1.855-11.204-4.647Z"/>
  <path fill="#293241" d="M271.953 94.128c.724-4.374 12.081-6.64 16.239-4.553.59.295.935.921.925 1.583-.025 1.612-.684 4.922-5.066 8.022-.981.692-2.188 1.024-3.38.877-2.033-.252-5.341-1.211-8.305-4.55a1.68 1.68 0 0 1-.413-1.379Z"/>
  <path fill="#293241" d="M280.42 98.875c2.084 5.118.076 11.671-5.742 12.732-3.393.806-6.666-.585-9.561-2.485-1.653-.397 1.42 3.556 1.891 3.863 6.517 6.207 15.881 1.217 17.679-6.732.699-2.954.305-6.023-.698-8.723-.943-2.343-4.407-1.04-3.569 1.345Z"/>
  <path fill="#293241" d="M287.489 111.395c-.04.278-.687 6.317-1.278 5.999-.589-.317-6.318-5.204-6.156-5.323.163-.121 3.087-3.418 3.087-3.418l3.234 2.702"/>
  <path fill="#293241" d="M281.159 104.462c-.454 4.516 2.983 8.708 7.713 8.322 7.062-.596 9.953-8.147 7.576-14.114-.113-.338-.643-.236-.623.118.225 3.851-1.01 8.277-4.664 9.765-3.434 1.304-5.949-.519-6.198-4.184-.305-2.287-3.618-2.186-3.804.093Z"/>
  <path fill="#293241" d="M280.475 123.858c.561 0 1.113-.054 1.649-.158 4.635-.908 8.67-5.714 7.418-13.139a1.91 1.91 0 0 0-2.198-1.564 1.909 1.909 0 0 0-1.563 2.199c.886 5.253-1.655 8.223-4.389 8.759-2.77.546-6.092-1.302-7.286-6.641a1.908 1.908 0 0 0-3.722.832c1.532 6.859 6.017 9.712 10.091 9.712Z"/>
  <path fill="#293241" d="M286.214 120.791a1.903 1.903 0 0 0 1.689-2.784c-.148-.285-3.735-6.971-11.592-6.65a1.91 1.91 0 0 0-1.828 1.984 1.9 1.9 0 0 0 1.986 1.827c5.388-.216 7.951 4.416 8.057 4.613a1.917 1.917 0 0 0 1.688 1.01Z"/>
  <path fill="#D6DCE4" d="M262.609 22.509c.372-.808.783-1.584 1.225-2.332-2.827-1.833-2.327-5.847-1.407-8.9-4.141 3.286-7.462 6.88-9.562 9.38 3.342.376 6.597.991 9.744 1.852Z"/>
  <path fill="#293241" d="M262.237 23.355c.119-.285.241-.568.371-.849a64.113 64.113 0 0 0-9.744-1.85l-.191.23 9.564 2.47Z"/>
  <path fill="#293241" d="m252.672 20.885.192-.23c2.1-2.5 5.421-6.095 9.563-9.38.668-2.216 1.557-3.925 1.557-3.925l-6.519 6.564-6.633 6.496 1.84.475Zm11.785 3.044 1.377-2.965c-.801-.171-1.461-.44-2-.79a25.692 25.692 0 0 0-1.597 3.18l2.22.575Z"/>
  <path fill="#D6DCE4" d="M236.387 146.493c3.884 0 7.985-.149 12.298-.445 21.928-1.422 39.704-7.567 50.739-17.268-17.706 7.612-34.923 11.676-50.348 11.676-29.585 0-52.574-14.948-59.756-48.524a74.49 74.49 0 0 1-2.346.036h-.466a62.616 62.616 0 0 1-5.728-.284c-1.856 17.304 1.023 30.509 8.609 39.366 8.864 10.354 24.297 15.445 46.998 15.443Z"/>
  <path fill="#CC763E" d="M186.974 91.969c.781 0 1.561-.013 2.346-.037-1.641-7.676-2.458-16.332-2.338-25.995a1.925 1.925 0 0 1-.773.163c-.4 0-.78-.126-1.093-.347l-2.679 7.075c.313.976.6 1.864.856 2.65.124.382.142.79.053 1.18-1.206 5.31-2.062 10.318-2.565 15.026a61.767 61.767 0 0 0 6.193.285Z"/>
  <path fill="#293241" d="M236.416 148.717c3.987 0 8.124-.155 12.412-.45 27.629-1.793 46.281-10.54 56.256-22.034-1.89.886-3.78 1.736-5.661 2.546-11.034 9.701-28.81 15.846-50.739 17.267-4.313.297-8.413.446-12.297.446-22.701.002-38.134-5.089-47-15.442-7.584-8.858-10.463-22.063-8.608-39.367.505-4.707 1.361-9.716 2.566-15.025a2.227 2.227 0 0 0-.052-1.179c-.257-.787-.543-1.677-.856-2.65l-1.262 3.333c-12.391 54.542 12.29 72.555 55.241 72.555Zm-50.208-82.618c.04 0 .08-.002.122-.004.23-.013.45-.07.652-.16.023-1.816.079-3.668.167-5.558l-2.034 5.376c.314.22.695.346 1.093.346Z"/>
  <path fill="#D6DCE4" d="M273.145 120.196c-1.029-1.273-1.888-2.902-2.473-4.924-1.272-.442-2.513-1.189-3.664-2.285-.448-.295-3.258-3.892-2.095-3.892.058 0 .127.009.204.027 2.167 1.423 4.545 2.56 7.027 2.703l.1-.001c.084 0 .167.005.248.016l.181.002c.663 0 1.332-.074 2.006-.234 3.81-.695 5.986-3.744 6.448-7.205-1.474 2.377-5.098 4.272-8.805 4.272-3.623 0-7.325-1.807-9.189-6.736 0 0 .273 14.56 10.012 18.257Z"/>
  <path fill="#293241" d="M270.672 115.273a17.98 17.98 0 0 1-.287-1.127 1.906 1.906 0 0 1 1.759-2.319c-2.482-.144-4.86-1.281-7.026-2.704a.882.882 0 0 0-.204-.028c-1.163 0 1.647 3.599 2.095 3.892 1.15 1.097 2.392 1.843 3.663 2.286Zm3.418-2.026c.077-.011.214-.03.394-.061a1.906 1.906 0 0 1 1.827-1.827 12.519 12.519 0 0 1 2.422.127c1.147-.789 2.223-1.921 2.851-3.539a7.977 7.977 0 0 1-.407-3.621l-.049.077c-.462 3.462-2.639 6.512-6.449 7.205a8.644 8.644 0 0 1-2.005.234c-.06 0-.122 0-.182-.002.75.1 1.396.638 1.598 1.407Zm7.547-9.931c.118-.129.252-.238.397-.327-.07-.508-.17-1.045-.306-1.605a3.608 3.608 0 0 1-.091 1.932Z"/>
  <path fill="#293241" d="M281.584 107.948c.51-1.31.725-2.938.45-4.959a1.811 1.811 0 0 0-.397.325 4.732 4.732 0 0 1-.461 1.01 7.981 7.981 0 0 0 .408 3.624Zm-5.975 12.904-3.133-5.324 1.536-2.274s.027-.002.077-.009a1.907 1.907 0 0 0-1.845-1.422l-.1.002a1.906 1.906 0 0 0-1.76 2.322c.087.388.183.764.288 1.127.585 2.021 1.445 3.649 2.474 4.922.762.29 1.582.512 2.463.656Zm-1.126-7.666c.829-.148 2.611-.574 4.25-1.701a12.405 12.405 0 0 0-2.422-.128c-1 .041-1.788.845-1.828 1.829Z"/>
  <path fill="#D6DCE4" d="M289.058 108.974c.648 0 1.354-.136 2.104-.421 2.208-.898 3.532-2.87 4.185-5.139-2.286 2.214-4.085 3.076-5.544 3.076-2.176 0-3.603-1.915-4.784-4.131.038.717.027 1.439-.044 2.161.239 2.775 1.803 4.454 4.083 4.454Z"/>
  <path fill="#293241" d="M284.975 104.522a14.22 14.22 0 0 0 .044-2.163c-.097-.178-.19-.361-.284-.545l-.535 1.237c.391.275.682.713.764 1.32l.011.151Z"/>
  <path fill="#293241" d="M289.582 110.814c.409-.02.836-.115 1.283-.297 4.475-1.831 4.849-7.467 4.849-7.467a30.89 30.89 0 0 1-.367.363c-.653 2.27-1.978 4.241-4.186 5.139-.749.284-1.455.422-2.104.422-2.279 0-3.844-1.68-4.082-4.453l-.012-.151c-.081-.606-.373-1.045-.763-1.32l-.194.451-.236 1.749s.935 2.534 2.644 4.184a1.902 1.902 0 0 1 1.248-.464 1.91 1.91 0 0 1 1.88 1.589l.04.255Z"/>
  <path fill="#293241" d="M289.406 110.822c.058 0 .118-.003.177-.005l-.04-.255a1.91 1.91 0 0 0-3.128-1.127c.823.796 1.826 1.387 2.991 1.387Z"/>
  <path fill="#D6DCE4" d="M196.88 235.107c2.007 0 4.095-.241 6.118-.743-10.061-17.469-20.62-42.09-22.307-54.788l-.205-.001c-1.568 0-11.568.404-9.674 10.808 2.048 11.286-15.436 13.351-25.606 13.351-8.782 0-16.443-6.906-19.265-15.729.1 9.735-2.433 19.898-9.468 26.612 3.404 1.388 9.364 3.439 16.768 4.416 2.936.388 5.822.581 8.663.581 11.713 0 22.599-3.292 32.463-9.83a107.5 107.5 0 0 1-2.198-9.798c-.667-3.868-1.115-7.803-1.058-11.72 1.386 7.451 4.337 14.578 7.729 21.307.061.098.114.204.159.311.06.131.111.259.151.386.827 2.098 5.383 13.416 11.205 23.875 1.917.631 4.167.962 6.525.962Z"/>
  <path fill="#D6DCE4" d="M222.176 256.382c.616-1.213 1.12-2.512 1.415-3.846-5.253-.445-10.421-2.581-14.178-7.957-2.05-2.933-4.22-6.403-6.416-10.216a25.528 25.528 0 0 1-6.118.744c-2.357 0-4.607-.332-6.525-.962 3.799 6.827 8.136 13.284 12.328 16.579 5.46 4.29 12.584 5.612 19.494 5.658Zm3.692-.089c3.475-.184 6.806-.624 9.731-1.092.8-1.405 1.463-2.945 1.673-4.53-3.332 1.059-7.362 1.957-11.46 1.957h-.123c.189 1.201.235 2.439.179 3.665Zm13.434-1.726.683-.12.773-.138c2.952-.524 3.402-2.767 3.262-4.554a7.966 7.966 0 0 0-.31-1.612 52.958 52.958 0 0 1-5.027 2.057c.473 1.368.635 2.871.619 4.367Z"/>
  <path fill="#293241" d="M222.532 258.622c.301 0 .604-.003.904-.008l-2.056-.802c.279-.459.547-.938.796-1.428-6.91-.046-14.033-1.37-19.493-5.659-4.192-3.294-8.529-9.753-12.328-16.58-5.82-10.458-10.377-21.776-11.205-23.875.408 1.299-.32 2.327-1.303 2.721 1.522 3.72 4.837 11.503 9.006 19.365 4.258 8.041 9.415 16.166 14.455 20.12 6.05 4.751 13.81 6.146 21.224 6.146Zm3.131-.079c4.074-.199 7.949-.749 11.266-1.303l-2.066-.833c.252-.387.501-.791.738-1.206-2.927.468-6.257.909-9.73 1.093a25.522 25.522 0 0 1-.208 2.249Zm13.492-1.686 1.994-.357c3.962-.704 5.474-3.865 5.048-7.33l-.775-1.887s-.622.345-1.712.861c.167.56.271 1.104.311 1.612.14 1.788-.311 4.029-3.262 4.554l-.773.137-.683.122a22.694 22.694 0 0 1-.148 2.288Zm-97.387-35.029c10.084 0 21.741-2.347 33.296-9.836a2.839 2.839 0 0 1-.18-.413 80.508 80.508 0 0 1-.514-1.794c-9.864 6.538-20.75 9.83-32.465 9.83-2.841 0-5.726-.193-8.663-.581-7.405-.977-13.364-3.028-16.768-4.416a25.058 25.058 0 0 1-1.881 1.629c4.346 1.878 14.517 5.581 27.175 5.581Zm-31.558-5.111.451-.309-.012-.014c-.144.109-.291.217-.439.323Zm68.789-6.831a2.184 2.184 0 0 0-.158-.313l.154.305.004.008Z"/>
  <path fill="#293241" d="M110.66 216.408c1.111-.774 1.648-1.23 1.648-1.23s.804.428 2.284 1.068a25.28 25.28 0 0 0 1.883-1.628c7.032-6.714 9.565-16.876 9.465-26.611a24.506 24.506 0 0 1-.964-4.323s-.989 22.682-14.327 32.71l.011.014Zm67.186-3.418c.983-.395 1.711-1.422 1.303-2.721a2.931 2.931 0 0 0-.151-.384l-.005-.008-.154-.306c-3.391-6.728-6.342-13.855-7.728-21.307-.057 3.92.39 7.853 1.058 11.723a107.042 107.042 0 0 0 2.199 9.797c.165.598.336 1.195.515 1.793.053.15.112.288.18.414a64.975 64.975 0 0 0 1.877-1.264s.321.83.906 2.263Zm59.082 44.249a211.07 211.07 0 0 0 2.227-.383c.084-.748.14-1.517.148-2.288.016-1.495-.147-2.999-.619-4.368-.454.159-.925.317-1.412.472-.209 1.584-.872 3.125-1.672 4.528-.236.416-.485.819-.737 1.207l2.065.832Zm-13.492 1.375a65.33 65.33 0 0 0 2.226-.072c.101-.737.174-1.49.208-2.249a18.378 18.378 0 0 0-.181-3.665 25.8 25.8 0 0 1-2.097-.091c-.296 1.333-.8 2.632-1.416 3.846a21.33 21.33 0 0 1-.796 1.428l2.056.803Z"/>
  <path fill="#D6DCE4" d="M73.325 255.989c2.671-1.127 4.376-3.382 4.858-6.047-3.803-1.006-6.952-3.448-9.425-6.57.018.31.082 1.007.093 1.29-.007.278-.071 1.057-.08 1.344-.288 2.373-1.546 4.536-3.336 6.101 2.75 2.159 5.4 3.462 7.89 3.882Zm5.115-.477a9.956 9.956 0 0 0 1.958-1.022c1.561-1.04 2.458-2.327 2.735-3.935a2.53 2.53 0 0 0 .024-.148c-.365.024-.727.036-1.083.036a15.19 15.19 0 0 1-2.79-.254c.22 1.822-.095 3.654-.844 5.323Zm-11.685-42.255c4.587-6.116 10.468-13.631 7.834-30.076-3.562-22.192 1.541-44.792 1.67-45.344a55.526 55.526 0 0 0-6.049 14.129 2.201 2.201 0 0 1-.116.433c-1.995 7.484-2.397 14.777-2.794 21.934-.518 9.367-1.01 18.215-5.139 26.379-1 1.977-1.98 3.859-2.92 5.663l-.657 1.263c2.63.838 5.208 2.621 8.17 5.619Z"/>
  <path fill="#D6DCE4" d="M62.526 249.541c2.348-.514 4.409-2.342 5.209-4.65l.153-.376.102-.39a9.7 9.7 0 0 0 .303-1.358c-5.506-7.388-7.428-18.128-5.573-22.992.854-2.231 2.357-4.281 4.037-6.518-2.964-2.997-5.54-4.78-8.17-5.618-7.433 14.291-11.259 22.482-2.13 34.824 2.053 2.773 4.082 5.136 6.069 7.078Z"/>
  <path fill="#293241" d="m73.475 258.273-.978-2c.1-.001.368-.103.566-.179.088-.034.174-.069.26-.105-2.488-.42-5.138-1.724-7.89-3.883-.582.512-1.223.959-1.907 1.33 3.634 2.975 6.966 4.454 9.949 4.837Zm3.21-.011c1.819-.256 3.472-.937 4.948-1.921 2.517-1.679 3.616-3.884 3.788-6.236a17.93 17.93 0 0 1-2.265.302c-.007.048-.014.098-.023.147-.28 1.609-1.174 2.895-2.736 3.936a10.01 10.01 0 0 1-1.956 1.022 11.265 11.265 0 0 1-1.755 2.75Zm-14.95-6.395-.442-2.183a6.152 6.152 0 0 0 1.232-.144c-1.989-1.941-4.017-4.304-6.07-7.078-9.127-12.341-5.302-20.532 2.13-34.824.217-.415.436-.837.66-1.263.938-1.803 1.918-3.686 2.917-5.662 4.13-8.165 4.619-17.013 5.138-26.38.396-7.157.801-14.449 2.794-21.933a2.22 2.22 0 0 1-1.881 1.421c-.256.023-.51.044-.766.065-3.93 16.946-.575 32.588-7.27 45.824-1.336 2.633-2.632 5.1-3.84 7.439-7.28 14.011-11.482 23.381-1.673 36.636 2.46 3.322 4.818 5.987 7.072 8.082Zm8.476-99.9a55.473 55.473 0 0 1 6.049-14.128c0-.007.002-.009.002-.009l-1.6 1.609-5.578 10.212a2.217 2.217 0 0 1 1.127 2.316Z"/>
  <path fill="#293241" d="M63.526 253.435c.684-.37 1.326-.817 1.907-1.329 1.793-1.565 3.047-3.728 3.339-6.101.007-.287.071-1.066.076-1.344-.01-.283-.074-.98-.092-1.289a23.51 23.51 0 0 1-.465-.606 9.613 9.613 0 0 1-.303 1.358l-.103.39-.151.376c-.8 2.308-2.86 4.137-5.21 4.65a6.12 6.12 0 0 1-1.232.144l.443 2.183a37.882 37.882 0 0 0 1.791 1.568Zm11.533 4.941c.557 0 1.099-.039 1.63-.114a11.304 11.304 0 0 0 1.753-2.749c.749-1.67 1.062-3.501.842-5.324a15.304 15.304 0 0 1-1.102-.246c-.48 2.664-2.184 4.919-4.857 6.046a7.344 7.344 0 0 1-.26.106c-.2.076-.467.177-.566.179l.978 2c.54.068 1.066.102 1.582.102Zm-7.609-104.49.766-.063a2.226 2.226 0 0 0 2.016-2.416 2.224 2.224 0 0 0-1.147-1.758l-1.058 1.94c-.21.767-.4 1.533-.578 2.297Z"/>
  <path fill="#D6DCE4" d="M129.465 254.771c.343 0 .86-.017 1.465-.095a29.881 29.881 0 0 0 1.107-3.259c-.48-.057-.967-.123-1.458-.191-1.278-.172-2.576-.346-3.817-.346-.713 0-1.408.057-2.068.205.257 1.198.395 2.433.457 3.667h3.685c.057 0 .123.003.18.008.007 0 .173.011.449.011Z"/>
  <path fill="#293241" d="M129.472 256.996c.661 0 1.771-.054 3.02-.342l-2.166-.523c.205-.477.409-.962.604-1.455a11.82 11.82 0 0 1-1.465.095c-.278 0-.443-.012-.45-.012a2.166 2.166 0 0 0-.18-.007h-3.684c.038.745.049 1.489.044 2.224h3.64s.237.02.637.02Z"/>
  <path fill="#D6DCE4" d="M94.414 231.631c2.97 0 5.782-.593 9.577-2.039.097-3.466 1.054-6.03 2.192-7.871-2.59 1.401-5.877 2.983-9.904 4.583a21.55 21.55 0 0 0-2.668 1.278 56.956 56.956 0 0 0-.394 3.956l-.004.063c.407.02.805.03 1.2.03Z"/>
  <path fill="#D6DCE4" d="M107.354 254.753h14.161c.381-.9.713-1.856.979-2.779-.755.322-1.598.48-2.494.48-5.574 0-13.23-6.127-15.481-17.25-.421-2.09-.572-3.954-.527-5.611-3.794 1.446-6.606 2.039-9.575 2.039-.397 0-.796-.01-1.201-.03-.772 12.758 3.79 18.601 7.758 21.255 1.859 1.24 4.067 1.896 6.38 1.896Z"/>
  <path fill="#293241" d="M107.355 256.976h16.97l-3.449-.862c.226-.43.439-.889.638-1.362h-14.159c-2.315 0-4.522-.656-6.382-1.896-3.967-2.654-8.53-8.496-7.759-21.255 0-.021.002-.041.004-.062.08-1.262.212-2.589.394-3.957a20.196 20.196 0 0 0-2.434 1.628c-.078.75-.135 1.48-.18 2.191-.866 13.999 4.425 20.42 8.741 23.306 2.249 1.501 4.907 2.269 7.616 2.269Z"/>
  <path fill="#D6DCE4" d="M134.61 253.418c.303-.196.593-.421.861-.678a5.54 5.54 0 0 0 1.108-1.488c-.651.219-1.369.309-2.127.321.075.61.125 1.227.158 1.845Z"/>
  <path fill="#293241" d="M134.668 255.92c2.471-1.144 4.819-3.477 4.968-8.206-.599 2.053-1.685 3.079-3.057 3.538a5.53 5.53 0 0 1-1.108 1.489c-.27.256-.558.481-.86.677.046.835.06 1.671.057 2.502Zm-43.489-26.71a20.2 20.2 0 0 1 2.433-1.628 21.656 21.656 0 0 1 2.67-1.278c4.026-1.599 7.311-3.181 9.903-4.582 1.684-2.728 3.763-3.864 3.998-3.989l-7.571 3.167s-5.562 2.701-6.14 2.93c-.363.146-3.04 1.653-4.966 2.74-.13.907-.241 1.786-.327 2.64Z"/>
  <path fill="#293241" d="M132.491 256.655c.7-.162 1.444-.396 2.176-.735a41.027 41.027 0 0 0-.056-2.502 26.993 26.993 0 0 0-.159-1.845l-.169.001c-.72 0-1.474-.066-2.248-.158a29.472 29.472 0 0 1-1.106 3.26 52.51 52.51 0 0 1-.602 1.455l2.164.524Zm-8.165.322h.87c.006-.735-.006-1.48-.045-2.224a22.691 22.691 0 0 0-.458-3.668 6.008 6.008 0 0 0-1.655.622 5.373 5.373 0 0 1-.544.267 25.641 25.641 0 0 1-.979 2.779c-.201.473-.413.931-.639 1.361l3.45.863Z"/>
  <path fill="#D6DCE4" d="M62.844 149.616c1.135 0 2.29-.037 3.462-.111 1.684-5.67 4.275-11.491 8.36-17.39.366-.532.74-1.049 1.115-1.553-.845.044-1.674.064-2.49.064-4.248 0-8.058-.593-11.448-1.788.971 4.731.914 10.138-4.431 10.138-2.127 0-5.09-.855-9.154-2.945-22.25-11.446-18.118-32.741-17.96-54.038.043-5.68-.422-10.264-1.315-14.126-2.45.91-4.8 2.514-6.77 5.14.165.836.306 1.697.425 2.582.75 5.595.581 12.334-.497 20.029-.645 4.562-.82 8.637-.539 12.452.991 13.308 6.558 25.177 15.269 32.57 7.032 5.967 15.751 8.976 25.973 8.976Z"/>
  <path fill="#293241" d="M66.306 149.505c.501-.031 1.007-.07 1.512-.114a2.27 2.27 0 0 1 .824.075 58.192 58.192 0 0 1 2.383-6.36l3.638-3.666 5.037-9.22a57.124 57.124 0 0 1-3.92.343 54.51 54.51 0 0 0-1.115 1.553c-4.084 5.898-6.676 11.719-8.359 17.389Z"/>
  <path fill="#CC763E" d="M22.214 73.006c1.97-2.627 4.32-4.229 6.77-5.14-2.45-10.611-8.106-15.764-15.216-23.222-5.488-5.759-3.13-9.402-.052-11.484-.16.013-.317.029-.474.047-2.396.268-5.637 1.183-7.466 4.02-1.635 2.543-1.761 6.164-.36 10.476 1.108 3.416 3.414 6.385 6.668 8.58 5.24 3.538 8.642 9.157 10.13 16.723Z"/>
  <path fill="#293241" d="M62.912 151.838a57.52 57.52 0 0 0 5.104-.233l.01-.016c.19-.706.396-1.412.615-2.123a2.224 2.224 0 0 0-.823-.077 54.253 54.253 0 0 1-4.977.227c-10.22 0-18.94-3.009-25.97-8.976-8.712-7.391-14.277-19.263-15.269-32.571-.281-3.815-.107-7.89.537-12.453 1.08-7.692 1.25-14.432.497-20.028a42.331 42.331 0 0 0-.422-2.58c-1.49-7.569-4.89-13.186-10.13-16.725-3.255-2.195-5.56-5.164-6.667-8.58-1.4-4.313-1.276-7.933.36-10.475 1.828-2.835 5.07-3.752 7.466-4.02.156-.019.315-.034.474-.047 1.495-1.008 3.159-1.649 4.18-1.982a17.542 17.542 0 0 0-3.107-.284c-.602 0-1.198.034-1.797.102C4.969 31.897-.11 37.9 3.3 48.39c1.302 4.016 4.037 7.372 7.54 9.737 5.064 3.422 8.442 9.112 9.593 17.758.71 5.307.583 11.729-.497 19.419-.605 4.286-.87 8.622-.553 12.932 1.652 22.138 15.76 43.602 43.529 43.602Zm10.38-21.211c.815 0 1.643-.021 2.49-.065a57.28 57.28 0 0 0 3.919-.342l1.323-2.424c-2.698.398-5.313.617-7.826.617-4.34 0-8.375-.656-12.005-2.198.235.821.461 1.709.649 2.623 3.39 1.195 7.2 1.789 11.45 1.789Z"/>
  <path fill="#293241" d="m69.083 149.649 5.579-10.21-3.64 3.667a57.883 57.883 0 0 0-2.382 6.359c.155.046.304.107.443.184Z"/>
  <path fill="#293241" d="m68.024 151.588 1.058-1.939a2.106 2.106 0 0 0-.441-.184c-.22.711-.426 1.417-.617 2.123Z"/>
  <path fill="#CC1773" d="M138.75 237.194c4.366-.221 9.154-5.064 13.701-13.098-4.454 7.235-9.123 11.489-13.47 11.664l-.132.822-.099.612Z"/>
  <path fill="#FF1D73" d="M148 223.5c-.123-.006-8.21 5.794-8.334 5.774-8.898-1.44-11.665-30.111-6.178-64.039 5.489-33.93 20.013-66.251 27.513-58.751 3.999 1.016 3.499 3.83 4.999 5.576l4-2.56 1.5-1.5c1-1.5 4.5-2-6-10-15.5-7.5-31.792 27.325-38.089 66.252-6.296 38.928-1.206 72.094 10.589 74.002 7.5-2.5 15.091-15.243 15.5-15.254l-5.5.5Z"/>
  <path fill="#B07BE2" d="M144.501 124.201c1.476-3.512 3.001-6.595 4.54-9.168-1.538 2.571-3.062 5.652-4.537 9.161l-.003.007Zm4.541-9.172.013-.021-.013.021Zm.033-.054.003-.005-.003.005Z"/>
  <path fill="#000072" d="M159.541 106.347c.049.008.097.016.144.026-.047-.01-.096-.018-.144-.026Zm.255.05c.035.008.07.017.104.027l.001-.001a4.018 4.018 0 0 0-.105-.026Z"/>
  <path fill="#CC1773" d="M144.5 124.22c1.475-3.508 3-6.59 4.537-9.161l.002-.004.013-.021.002-.003.01-.017.008-.013.002-.004c3.566-5.945 7.2-9.152 10.461-8.624l.003.001c.048.007.096.016.144.025l.111.024c.035.008 6.669 4.787 6.704 4.797l.003.28 3-1.5c-7-16-24.5-2-25 14.22Z"/>
  <path fill="#CCCCE3" d="m126.751 221.602-.001.002c1.923 8.705 5.063 14.526 9.242 16.15-4.179-1.624-7.319-7.446-9.241-16.152Z"/>
  <path fill="#8E8EC0" d="M126.169 218.675c.18 1.009.374 1.986.582 2.929v-.002a73.594 73.594 0 0 1-.582-2.927Z"/>
  <path fill="#000072" d="M135.992 237.754Z"/>
  <path fill="#CCCCE3" d="M124.664 191.52c-.322 9.205.062 17.551 1.085 24.558-1.023-7.006-1.406-15.351-1.084-24.555.016-.468.034-.937.054-1.409v-.003c-.021.473-.038.941-.055 1.409Z"/>
  <path fill="#000072" d="M125.749 216.078Z"/>
  <path fill="#B07BE2" d="M130.481 148.583Z"/>
  <path fill="#CCCCE3" d="M125.545 178.491v-.002a233.17 233.17 0 0 1 1.866-14.297 233.265 233.265 0 0 1-.001 0 232.436 232.436 0 0 0-1.865 14.299Z"/>
  <path fill="#000072" d="M129.9 151.144Z"/>
  <path fill="#A31273" d="m138.75 237.194.099-.611-.084.512-.015.099Z"/>
  <path fill="#000072" d="M138.252 238.212c.111.003.222.003.333.001l.165-1.019-.165 1.018a6.162 6.162 0 0 1-.333 0Z"/>
  <path fill="#B07BE2" d="M154.675 98.397c.098-.057.193-.111.291-.165h.001c-.098.053-.194.108-.292.165Z"/>
  <path fill="#CC5919" d="M124.719 190.111v.003c.158-3.749.433-7.636.826-11.625l-.001.002a208.044 208.044 0 0 0-.825 11.62Z"/>
  <path fill="#CC1773" d="M124.665 191.523c-.322 9.204.061 17.549 1.084 24.555.13.886.27 1.754.42 2.598.179 1.008.374 1.983.582 2.926 1.922 8.706 5.063 14.528 9.241 16.152a6.794 6.794 0 0 0 2.593.458l.415-.518 3.5-1.194 2.5-2.5c-16.5 5.5-18.341-19.748-17.476-44.517.296-8.505 1.195-17.738 2.746-27.331 4.916-30.386 14.928-55.338 24.697-63.92-.099.054-.194.108-.292.165-8.359 4.852-17.251 22.617-23.239 46.261l-.002.007-.001.006a211.654 211.654 0 0 0-1.533 6.473 234.176 234.176 0 0 0-2.489 13.048 233.17 233.17 0 0 0-1.866 14.297 208.239 208.239 0 0 0-.88 13.034Z"/>
  <g filter="url(#a)">
    <path fill="#000072" d="M123.646 191.518c-.301 8.63.012 16.654.955 23.659 1.945 14.444 6.421 22.95 12.604 23.95.467.075.94.108 1.404.097C144 238.694 155.634 223.545 154 223c-3-1-8 12.194-15.44 14.201a5.531 5.531 0 0 1-1.032-.072c-5.151-.833-9.132-8.933-10.921-22.222-1.868-13.869-1.227-31.822 1.803-50.554 6.092-37.666 20.59-66.16 31.59-66.66 4.849-.22 9.578 4.463 11 7.307.5 1 .651 1.194 1.5 2 1-.5.5-1 .5-1.306 0 0-3.5-9.5-12-9.5-14.036 0-28.104 27.752-34.588 67.836-1.535 9.494-2.462 18.799-2.766 27.488Z"/>
  </g>
  <path fill="#000072" d="M130.255 191.964c-.222 6.345-.086 12.251.42 17.491.86 8.911 3.176 19.742 9.33 20.739.995 0 2.995-.694 3.995-1.694 1.5-1.5 1.672-1.826 2.672-2.826L148 224c1-1.5-1.5 0-3.5 1.674-2 1.5-2.5 2.5-4.173 2.521-3.696-.597-6.552-7.676-7.638-18.934-1.159-12.012-.342-27.618 2.298-43.944 5.847-36.151 17.591-59.171 24.892-57.991C161.5 107.5 164 109 165 111l.5 1c.124.247.5 0 1.5-.5-.5-1.5-1.5-5.314-6.799-6.171-6.153-.995-11.766 8.553-15.391 16.739-4.955 11.188-9.153 26.433-11.821 42.926-1.52 9.397-2.441 18.567-2.734 26.97Z"/>
  <defs>
    <filter id="a" width="57.59" height="151.032" x="119.535" y="96.194" color-interpolation-filters="sRGB" filterUnits="userSpaceOnUse">
      <feFlood flood-opacity="0" result="BackgroundImageFix"/>
      <feColorMatrix in="SourceAlpha" result="hardAlpha" values="0 0 0 0 0 0 0 0 0 0 0 0 0 0 0 0 0 0 127 0"/>
      <feOffset dy="4"/>
      <feGaussianBlur stdDeviation="2"/>
      <feComposite in2="hardAlpha" operator="out"/>
      <feColorMatrix values="0 0 0 0 0 0 0 0 0 0 0 0 0 0 0 0 0 0 0.25 0"/>
      <feBlend in2="BackgroundImageFix" result="effect1_dropShadow_224_337"/>
      <feBlend in="SourceGraphic" in2="effect1_dropShadow_224_337" result="shape"/>
    </filter>
  </defs>
</svg>
